<svg width="24" height="24" viewBox="0 0 24 24" fill="none" xmlns="http://www.w3.org/2000/svg">
<g clip-path="url(#clip0_14285_84272)">
<path d="M6 22C7.03333 22 7.87917 21.7416 8.5375 21.225C9.19583 20.7083 9.7 19.95 10.05 18.95C10.3333 18.1166 10.6042 17.5333 10.8625 17.2C11.1208 16.8666 11.7167 16.3333 12.65 15.6C13.6833 14.7666 14.5 13.825 15.1 12.775C15.7 11.725 16 10.4666 16 8.99995C16 7.01662 15.3292 5.35412 13.9875 4.01245C12.6458 2.67078 10.9833 1.99995 9 1.99995C7.01667 1.99995 5.35417 2.67078 4.0125 4.01245C2.67083 5.35412 2 7.01662 2 8.99995H4C4 7.58329 4.47917 6.39578 5.4375 5.43745C6.39583 4.47912 7.58333 3.99995 9 3.99995C10.4167 3.99995 11.6042 4.47912 12.5625 5.43745C13.5208 6.39578 14 7.58329 14 8.99995C14 10.1333 13.775 11.1 13.325 11.9C12.875 12.7 12.2333 13.4166 11.4 14.05C10.5333 14.6833 9.85833 15.3 9.375 15.9C8.89167 16.5 8.53333 17.15 8.3 17.85C8.06667 18.5833 7.7875 19.125 7.4625 19.475C7.1375 19.825 6.65 20 6 20C5.45 20 4.97917 19.8041 4.5875 19.4125C4.19583 19.0208 4 18.55 4 18H2C2 19.1 2.39167 20.0416 3.175 20.825C3.95833 21.6083 4.9 22 6 22ZM10.775 10.7625C11.2583 10.2708 11.5 9.68329 11.5 8.99995C11.5 8.29995 11.2583 7.70829 10.775 7.22495C10.2917 6.74162 9.7 6.49995 9 6.49995C8.3 6.49995 7.70833 6.74162 7.225 7.22495C6.74167 7.70829 6.5 8.29995 6.5 8.99995C6.5 9.68329 6.74167 10.2708 7.225 10.7625C7.70833 11.2541 8.3 11.5 9 11.5C9.7 11.5 10.2917 11.2541 10.775 10.7625ZM18.5 14.525L17.025 13.05C17.3417 12.4333 17.5833 11.7875 17.75 11.1125C17.9167 10.4375 18 9.73328 18 8.99995C18 8.26662 17.9167 7.56662 17.75 6.89995C17.5833 6.23328 17.3417 5.59162 17.025 4.97495L18.5 3.49995C18.9833 4.31662 19.3542 5.18745 19.6125 6.11245C19.8708 7.03745 20 7.99995 20 8.99995C20 10.0166 19.8708 10.9875 19.6125 11.9125C19.3542 12.8375 18.9833 13.7083 18.5 14.525ZM21.425 17.425L19.95 15.975C20.6 14.975 21.1042 13.8916 21.4625 12.725C21.8208 11.5583 22 10.3333 22 9.04995C22 7.74995 21.8167 6.51245 21.45 5.33745C21.0833 4.16245 20.575 3.07495 19.925 2.07495L21.425 0.574951C22.2417 1.77495 22.875 3.08745 23.325 4.51245C23.775 5.93745 24 7.43329 24 8.99995C24 10.5666 23.775 12.0625 23.325 13.4875C22.875 14.9125 22.2417 16.225 21.425 17.425Z" fill="#1E1E1E"/>
</g>
<defs>
<clipPath id="clip0_14285_84272">
<rect width="24" height="24" fill="white"/>
</clipPath>
</defs>
</svg>
