<svg width="20" height="20" viewBox="0 0 20 20" fill="none" xmlns="http://www.w3.org/2000/svg">
<path d="M12.31 12.29L13.29 11.31L10.7 8.72V5.5H9.3V9.28L12.31 12.29ZM10 16C9.03167 16 8.12167 15.8162 7.27 15.4488C6.41833 15.0813 5.6775 14.5825 5.0475 13.9525C4.4175 13.3225 3.91875 12.5817 3.55125 11.73C3.18375 10.8783 3 9.96833 3 9C3 8.03167 3.18375 7.12167 3.55125 6.27C3.91875 5.41833 4.4175 4.6775 5.0475 4.0475C5.6775 3.4175 6.41833 2.91875 7.27 2.55125C8.12167 2.18375 9.03167 2 10 2C10.9683 2 11.8783 2.18375 12.73 2.55125C13.5817 2.91875 14.3225 3.4175 14.9525 4.0475C15.5825 4.6775 16.0813 5.41833 16.4488 6.27C16.8162 7.12167 17 8.03167 17 9C17 9.96833 16.8162 10.8783 16.4488 11.73C16.0813 12.5817 15.5825 13.3225 14.9525 13.9525C14.3225 14.5825 13.5817 15.0813 12.73 15.4488C11.8783 15.8162 10.9683 16 10 16ZM10 14.6C11.5517 14.6 12.8729 14.0546 13.9637 12.9637C15.0546 11.8729 15.6 10.5517 15.6 9C15.6 7.44833 15.0546 6.12708 13.9637 5.03625C12.8729 3.94542 11.5517 3.4 10 3.4C8.44833 3.4 7.12708 3.94542 6.03625 5.03625C4.94542 6.12708 4.4 7.44833 4.4 9C4.4 10.5517 4.94542 11.8729 6.03625 12.9637C7.12708 14.0546 8.44833 14.6 10 14.6Z" fill="#575757"/>
</svg>
