<svg width="20" height="20" viewBox="0 0 20 20" fill="none" xmlns="http://www.w3.org/2000/svg">
<path d="M17.2556 18L11.6556 12.4C11.2111 12.7556 10.7 13.037 10.1222 13.2444C9.54444 13.4519 8.92963 13.5556 8.27778 13.5556C6.66296 13.5556 5.2963 12.9963 4.17778 11.8778C3.05926 10.7593 2.5 9.39259 2.5 7.77778C2.5 6.16296 3.05926 4.7963 4.17778 3.67778C5.2963 2.55926 6.66296 2 8.27778 2C9.89259 2 11.2593 2.55926 12.3778 3.67778C13.4963 4.7963 14.0556 6.16296 14.0556 7.77778C14.0556 8.42963 13.9519 9.04444 13.7444 9.62222C13.537 10.2 13.2556 10.7111 12.9 11.1556L18.5 16.7556L17.2556 18ZM8.27778 11.7778C9.38889 11.7778 10.3333 11.3889 11.1111 10.6111C11.8889 9.83333 12.2778 8.88889 12.2778 7.77778C12.2778 6.66667 11.8889 5.72222 11.1111 4.94444C10.3333 4.16667 9.38889 3.77778 8.27778 3.77778C7.16667 3.77778 6.22222 4.16667 5.44444 4.94444C4.66667 5.72222 4.27778 6.66667 4.27778 7.77778C4.27778 8.88889 4.66667 9.83333 5.44444 10.6111C6.22222 11.3889 7.16667 11.7778 8.27778 11.7778Z" fill="white"/>
</svg>
