<svg width="20" height="20" viewBox="0 0 20 20" fill="none" xmlns="http://www.w3.org/2000/svg">
<path d="M5.55556 7.8V6H18V7.8H5.55556ZM5.55556 11.4V9.6H18V11.4H5.55556ZM5.55556 15V13.2H18V15H5.55556ZM2.88889 7.8C2.63704 7.8 2.42593 7.71375 2.25556 7.54125C2.08519 7.36875 2 7.155 2 6.9C2 6.645 2.08519 6.43125 2.25556 6.25875C2.42593 6.08625 2.63704 6 2.88889 6C3.14074 6 3.35185 6.08625 3.52222 6.25875C3.69259 6.43125 3.77778 6.645 3.77778 6.9C3.77778 7.155 3.69259 7.36875 3.52222 7.54125C3.35185 7.71375 3.14074 7.8 2.88889 7.8ZM2.88889 11.4C2.63704 11.4 2.42593 11.3138 2.25556 11.1413C2.08519 10.9688 2 10.755 2 10.5C2 10.245 2.08519 10.0312 2.25556 9.85875C2.42593 9.68625 2.63704 9.6 2.88889 9.6C3.14074 9.6 3.35185 9.68625 3.52222 9.85875C3.69259 10.0312 3.77778 10.245 3.77778 10.5C3.77778 10.755 3.69259 10.9688 3.52222 11.1413C3.35185 11.3138 3.14074 11.4 2.88889 11.4ZM2.88889 15C2.63704 15 2.42593 14.9138 2.25556 14.7413C2.08519 14.5688 2 14.355 2 14.1C2 13.845 2.08519 13.6313 2.25556 13.4588C2.42593 13.2863 2.63704 13.2 2.88889 13.2C3.14074 13.2 3.35185 13.2863 3.52222 13.4588C3.69259 13.6313 3.77778 13.845 3.77778 14.1C3.77778 14.355 3.69259 14.5688 3.52222 14.7413C3.35185 14.9138 3.14074 15 2.88889 15Z" fill="#1E1E1E"/>
</svg>
