<svg width="24" height="24" viewBox="0 0 24 24" fill="none" xmlns="http://www.w3.org/2000/svg">
<path d="M16.3 19.15L14.875 17.75C15.225 17.4 15.5 16.9958 15.7 16.5375C15.9 16.0792 16 15.5833 16 15.05C16 14.5167 15.9 14.0208 15.7 13.5625C15.5 13.1042 15.225 12.7 14.875 12.35L16.3 10.925C16.8333 11.4583 17.25 12.0792 17.55 12.7875C17.85 13.4958 18 14.25 18 15.05C18 15.85 17.85 16.6 17.55 17.3C17.25 18 16.8333 18.6167 16.3 19.15ZM19.125 22L17.7 20.575C18.4167 19.8583 18.9792 19.0292 19.3875 18.0875C19.7958 17.1458 20 16.1333 20 15.05C20 13.95 19.7958 12.9333 19.3875 12C18.9792 11.0667 18.4167 10.2417 17.7 9.52499L19.125 8.09999C20.025 8.99999 20.7292 10.0417 21.2375 11.225C21.7458 12.4083 22 13.6833 22 15.05C22 16.4 21.7458 17.6708 21.2375 18.8625C20.7292 20.0542 20.025 21.1 19.125 22ZM2 22V20H6.475V19.3C5.70833 18.9167 5.10417 18.3625 4.6625 17.6375C4.22083 16.9125 4 16.125 4 15.275V13H8V9.99999H10.65L8.1 3.44999L9.975 2.67499L13.175 11V12H10V15H6V15.275C6 15.8583 6.17917 16.3708 6.5375 16.8125C6.89583 17.2542 7.35 17.55 7.9 17.7L8.55 17.775V22H2Z" fill="#1E1E1E"/>
</svg>
