<svg width="24" height="24" viewBox="0 0 24 24" fill="none" xmlns="http://www.w3.org/2000/svg">
<g clip-path="url(#clip0_14285_84257)">
<path d="M11.8484 23L1.97344 13.125L9.52344 5.575L13.1734 9.225L13.8734 8.525L8.52344 3.175L1.69844 10L2.67344 10.975L1.24844 12.4L-1.10156 10.05L8.57344 0.375L11.6734 3.475L14.7734 0.375L24.6234 10.225L11.8484 23ZM11.8734 20.2L21.7984 10.225L14.7484 3.175L13.0734 4.85L16.7234 8.5L13.1734 12.05L9.52344 8.4L4.79844 13.125L5.52344 13.85L9.24844 10.125L10.6484 11.525L6.92344 15.25L7.62344 15.95L11.3484 12.225L12.7734 13.65L9.04844 17.375L9.74844 18.075L13.4734 14.35L14.8734 15.75L11.1484 19.475L11.8734 20.2Z" fill="white"/>
</g>
<defs>
<clipPath id="clip0_14285_84257">
<rect width="24" height="24" fill="white"/>
</clipPath>
</defs>
</svg>
