<svg width="20" height="20" viewBox="0 0 20 20" fill="none" xmlns="http://www.w3.org/2000/svg">
<path d="M6.61538 16L8.33846 6.8186L7.23077 7.27442V9.48837H6V6.42791L9.10769 5.02791C9.25128 4.96279 9.40256 4.92481 9.56154 4.91395C9.72051 4.9031 9.87179 4.92481 10.0154 4.97907C10.159 5.03333 10.2949 5.1093 10.4231 5.20698C10.5513 5.30465 10.6564 5.42946 10.7385 5.5814L11.3538 6.62326C11.6205 7.07907 11.9821 7.45349 12.4385 7.74651C12.8949 8.03954 13.4154 8.18605 14 8.18605V9.48837C13.2821 9.48837 12.641 9.33101 12.0769 9.01628C11.5128 8.70155 11.0308 8.3 10.6308 7.81163L10.2462 9.81395L11.5385 11.1163V16H10.3077V11.7674L9.01538 10.7256L7.90769 16H6.61538ZM9.74615 4.22209C9.50513 3.96705 9.38462 3.66047 9.38462 3.30233C9.38462 2.94419 9.50513 2.6376 9.74615 2.38256C9.98718 2.12752 10.2769 2 10.6154 2C10.9538 2 11.2436 2.12752 11.4846 2.38256C11.7256 2.6376 11.8462 2.94419 11.8462 3.30233C11.8462 3.66047 11.7256 3.96705 11.4846 4.22209C11.2436 4.47713 10.9538 4.60465 10.6154 4.60465C10.2769 4.60465 9.98718 4.47713 9.74615 4.22209Z" fill="#1E1E1E"/>
</svg>
