<svg width="20" height="20" viewBox="0 0 20 20" fill="none" xmlns="http://www.w3.org/2000/svg">
<path d="M4.33333 14.7273C3.96667 14.7273 3.65278 14.6027 3.39167 14.3534C3.13056 14.1042 3 13.8045 3 13.4545V4.54545C3 4.19545 3.13056 3.89583 3.39167 3.64659C3.65278 3.39735 3.96667 3.27273 4.33333 3.27273H5V2H6.33333V3.27273H11.6667V2H13V3.27273H13.6667C14.0333 3.27273 14.3472 3.39735 14.6083 3.64659C14.8694 3.89583 15 4.19545 15 4.54545V8.36364H13.6667V7.09091H4.33333V13.4545H9V14.7273H4.33333ZM13.6667 16C12.8556 16 12.1472 15.7587 11.5417 15.2761C10.9361 14.7936 10.5556 14.1864 10.4 13.4545H11.4333C11.5778 13.9212 11.8528 14.303 12.2583 14.6C12.6639 14.897 13.1333 15.0455 13.6667 15.0455C14.3111 15.0455 14.8611 14.828 15.3167 14.3932C15.7722 13.9583 16 13.4333 16 12.8182C16 12.203 15.7722 11.678 15.3167 11.2432C14.8611 10.8083 14.3111 10.5909 13.6667 10.5909C13.3444 10.5909 13.0444 10.6466 12.7667 10.758C12.4889 10.8693 12.2444 11.0258 12.0333 11.2273H13V12.1818H10.3333V9.63636H11.3333V10.5432C11.6333 10.2674 11.9833 10.0473 12.3833 9.88295C12.7833 9.71856 13.2111 9.63636 13.6667 9.63636C14.5889 9.63636 15.375 9.94659 16.025 10.567C16.675 11.1875 17 11.9379 17 12.8182C17 13.6985 16.675 14.4489 16.025 15.0693C15.375 15.6898 14.5889 16 13.6667 16ZM4.33333 5.81818H13.6667V4.54545H4.33333V5.81818Z" fill="#575757"/>
</svg>
