<svg width="200" height="98" viewBox="0 0 200 98" fill="none" xmlns="http://www.w3.org/2000/svg">
<path d="M199.5 5.21777V70.957L69.3867 80.0605L69.1777 80.0752L69.041 80.2344L54.457 97.332L47.7197 92.6953L45.1133 82.1006L45.0137 81.6943L44.5957 81.7217L6.76367 84.2002L0.5 79.4785V13.7549L193.834 0.511719L199.5 5.21777Z" fill="#1E1E1E" stroke="#1E1E1E"/>
<path d="M193.5 65.9609L61.915 75.0635L61.7031 75.0781L61.5674 75.2402L47.3379 92.1494L37.9209 76.96L37.7627 76.7041L37.4629 76.7246L0.5 79.1797V13.752L193.5 0.535156V65.9609Z" fill="white" stroke="#1E1E1E"/>
<path d="M37.6479 55.536L36.3682 36.6673L29.8551 37.1091L29.5996 33.3417L46.84 32.1724L47.0955 35.9398L40.5825 36.3815L41.8622 55.2502L37.6479 55.536ZM55.2014 37.6031C60.0223 37.2761 62.938 40.5423 63.226 44.7886C63.2671 45.3952 63.2531 46.1338 63.2217 46.617L51.9516 47.3814C52.4636 50.2012 54.8062 51.1649 57.2965 50.996C59.3078 50.8596 61.3013 49.9867 62.4155 48.9169L62.6818 52.8439C60.9697 54.0825 58.9437 54.4765 56.9962 54.6086C51.7602 54.9637 47.9571 51.854 47.6085 46.7138C47.2815 41.8928 50.3166 37.9344 55.2014 37.6031ZM55.3736 41.0874C53.3303 41.226 52.0143 42.6303 51.7995 44.6655L59.2065 44.1631C58.9126 42.1945 57.4488 40.9467 55.3736 41.0874ZM73.9546 36.3312C78.7755 36.0042 81.6912 39.2704 81.9792 43.5167C82.0203 44.1233 82.0063 44.8619 81.9749 45.3452L70.7048 46.1095C71.2168 48.9293 73.5593 49.893 76.0496 49.7241C78.061 49.5877 80.0545 48.7148 81.1687 47.645L81.435 51.572C79.7229 52.8107 77.6969 53.2047 75.7494 53.3367C70.5134 53.6919 66.7103 50.5821 66.3616 45.4419C66.0347 40.621 69.0698 36.6625 73.9546 36.3312ZM74.1267 39.8156C72.0834 39.9541 70.7674 41.3584 70.5527 43.3936L77.9596 42.8912C77.6658 40.9226 76.202 39.6748 74.1267 39.8156ZM91.1752 35.1633C93.0589 35.0355 95.0433 35.4462 96.3149 36.2259L96.5748 40.0571C95.1261 39.0328 93.3886 38.4771 91.5687 38.6005C89.8128 38.7196 88.9941 39.4166 89.0547 40.3106C89.1218 41.3003 90.144 41.7121 92.1922 42.1184C94.8898 42.6411 97.7302 43.3785 97.9532 46.667C98.1676 49.8277 95.8435 51.9739 91.7888 52.2489C89.5539 52.4005 87.4695 51.9325 85.9294 50.9785L85.6501 46.8599C87.2822 48.2246 89.0668 49.0017 91.3017 48.8501C93.2173 48.7202 94.1594 47.9506 94.0922 46.9609C94.0186 45.8754 92.7475 45.5767 90.531 45.0535C87.9568 44.4583 85.3334 43.6099 85.1342 40.6727C84.9372 37.7673 87.2802 35.4274 91.1752 35.1633ZM106.779 34.105C108.663 33.9772 110.647 34.3879 111.919 35.1676L112.179 38.9988C110.73 37.9745 108.993 37.4188 107.173 37.5422C105.417 37.6613 104.598 38.3583 104.659 39.2522C104.726 40.242 105.748 40.6537 107.796 41.0601C110.494 41.5827 113.334 42.3202 113.557 45.6087C113.772 48.7694 111.448 50.9156 107.393 51.1906C105.158 51.3422 103.074 50.8741 101.534 49.9202L101.254 45.8016C102.886 47.1663 104.671 47.9433 106.906 47.7918C108.821 47.6618 109.764 46.8923 109.696 45.9026C109.623 44.8171 108.352 44.5184 106.135 43.9952C103.561 43.4 100.938 42.5516 100.738 39.6144C100.541 36.709 102.884 34.3691 106.779 34.105ZM118.577 26.5694C119.886 26.4806 121.008 27.4308 121.099 28.7717C121.19 30.1127 120.206 31.2058 118.897 31.2945C117.556 31.3855 116.401 30.4375 116.31 29.0965C116.219 27.7556 117.236 26.6603 118.577 26.5694ZM118.054 50.0826L116.95 33.8L121.101 33.5185L122.205 49.8011L118.054 50.0826ZM139.114 46.4413C138.354 48.0003 136.288 49.2309 134.117 49.3781C129.871 49.6661 126.219 46.4178 125.877 41.3734C125.534 36.329 128.746 32.6151 132.897 32.3336C135.004 32.1907 137.055 33.11 138.04 34.3903L137.47 25.9936L141.589 25.7143L143.126 48.3822L139.263 48.6442L139.114 46.4413ZM134.666 45.6524C137.029 45.4922 138.876 43.4104 138.681 40.537C138.484 37.6317 136.375 35.8503 134.012 36.0106C131.682 36.1686 129.834 38.2504 130.029 41.1238C130.224 43.9972 132.336 45.8105 134.666 45.6524ZM154.407 30.8747C159.228 30.5477 162.144 33.8139 162.432 38.0602C162.473 38.6668 162.459 39.4054 162.428 39.8887L151.157 40.653C151.669 43.4728 154.012 44.4365 156.502 44.2676C158.514 44.1312 160.507 43.2583 161.621 42.1885L161.888 46.1155C160.176 47.3542 158.15 47.7482 156.202 47.8802C150.966 48.2354 147.163 45.1256 146.814 39.9854C146.487 35.1645 149.522 31.206 154.407 30.8747ZM154.579 34.3591C152.536 34.4976 151.22 35.9019 151.005 37.9371L158.412 37.4347C158.118 35.4661 156.655 34.2183 154.579 34.3591Z" fill="#1E1E1E"/>
</svg>
